<?xml version="1.0" encoding="UTF-8"?><svg id="uuid-1d44e2d9-d68d-436e-a710-319089cd067c" xmlns="http://www.w3.org/2000/svg" xmlns:xlink="http://www.w3.org/1999/xlink" viewBox="0 0 400 215"><defs><style>.uuid-b2f0f23b-b0fe-442c-9e5e-7374b9b48390{fill:none;}.uuid-c52cc875-ef37-452c-b55e-f5cafe466c36{fill:#12004f;}.uuid-eb4533c6-b383-46a7-9556-424add47a3ee{clip-path:url(#uuid-2d421a36-abc5-4b0d-ba58-ef325d574b87);}.uuid-549aaf9a-f4d4-48b8-b5f7-94880abc4825{fill:#f6b333;}</style><clipPath id="uuid-2d421a36-abc5-4b0d-ba58-ef325d574b87"><rect class="uuid-b2f0f23b-b0fe-442c-9e5e-7374b9b48390" x="4.64291" y="2.78697" width="391.64899" height="210.03799"/></clipPath></defs><g class="uuid-eb4533c6-b383-46a7-9556-424add47a3ee"><path class="uuid-c52cc875-ef37-452c-b55e-f5cafe466c36" d="M140.54722,38.03247c0-5.377-4.36099-9.73601-9.737-9.73601H14.38021c-5.38098.002-9.737,4.35901-9.737,9.73601,0,5.379,4.36301,9.73698,9.73901,9.73698h47.98401v118.60701c0,5.648,4.57898,10.23,10.23199,10.23,5.647,0,10.22598-4.582,10.22598-10.23V47.76946h47.98601c5.37601,0,9.737-4.35799,9.737-9.73698M191.96423,119.56947c0,20.852-16.524,38.359-37.964,38.359-21.63701,0-37.18199-18.687-37.18199-38.359,0-17.111,12.19598-38.95,37.37599-38.95,21.05,0,37.77,15.73801,37.77,38.95M212.02822,166.37647v-91.291c0-5.65201-4.577-10.23401-10.22701-10.23401-5.646,0-10.23,4.582-10.23,10.23401v5.13699h-.39101c-7.87099-12-21.83899-18.29399-36.98599-18.29399-39.14101,0-57.82899,31.28-57.82899,57.836,0,28.721,21.043,56.85,57.82899,56.85,14.754,0,29.11501-6.294,36.98599-19.672h.39101v9.434c0,5.648,4.584,10.23,10.23,10.23,5.65001,0,10.22701-4.582,10.22701-10.23M321.77322,119.56947c0,19.672-15.54199,38.359-37.17899,38.359-21.439,0-37.966-17.507-37.966-38.359,0-23.212,16.72-38.95,37.771-38.95,25.181,0,37.37399,21.839,37.37399,38.95M342.22921,119.76447c0-26.556-18.68597-57.836-57.82999-57.836-15.14902,0-29.11401,6.29399-36.983,18.29399h-.39301v-5.13699c0-5.65201-4.58099-10.23401-10.23199-10.23401-5.64799,0-10.228,4.582-10.228,10.23401v127.513c0,5.647,4.58,10.226,10.228,10.226,5.651,0,10.23199-4.579,10.23199-10.226v-45.656h.39301c7.86899,13.378,22.22699,19.672,36.983,19.672,36.78201,0,57.82999-28.129,57.82999-56.85M376.25222,166.37647v-93.748c-2.284.692-6.19601,1.54001-10.05499,1.54001-3.86401,0-7.79199-.767-10.405-1.56401v93.772c0,5.648,4.582,10.23,10.23199,10.23,5.647,0,10.228-4.582,10.228-10.23"/><path class="uuid-549aaf9a-f4d4-48b8-b5f7-94880abc4825" d="M365.72842,67.67616c-14.61499,0-26.504-11.88901-26.504-26.504,0-12.705,10.33899-23.043,23.047-23.043,11.08701,0,20.10599,9.01999,20.10599,20.11,0,9.709-7.89899,17.60699-17.60999,17.60699-8.54001,0-15.487-6.948-15.487-15.48799,0-7.54401,6.138-12.85201,13.68201-12.85201,1.909,0,3.45999,1.55,3.45999,3.45799,0,1.912-1.55099,3.45901-3.45999,3.45901-3.73102,0-6.76801,2.20399-6.76801,5.935,0,4.72699,3.84799,8.56999,8.573,8.56999,5.89099,0,10.689-4.795,10.689-10.689,0-7.27701-5.91101-13.19301-13.185-13.19301-8.89401,0-16.12799,7.23401-16.12799,16.12601,0,10.8,8.78299,19.58701,19.58499,19.58701,13.035,0,23.64999-10.61101,23.64999-23.651,0-15.67801-12.755-27.40401-28.435-27.40401-18.78299,0-31.23898,14.252-31.23898,33.03,0,1.912-1.55103,3.46201-3.46002,3.46201-1.91299,0-3.461-1.55-3.461-3.46201,0-22.59599,15.56-39.94701,38.16-39.94701,19.492,0,35.349,14.82901,35.349,34.32101,0,16.85399-13.711,30.56799-30.564,30.56799"/></g></svg>